<svg xmlns="http://www.w3.org/2000/svg" viewBox="150 60 700 780" width="512" height="512" role="img" aria-label="143 aircraft">
  <defs>
    <linearGradient id="body-gradient" x1="20%" y1="0%" x2="80%" y2="100%">
      <stop offset="0%" stop-color="#abcbe6" />
      <stop offset="50%" stop-color="#88bce3" />
      <stop offset="100%" stop-color="#699ec5" />
    </linearGradient>

    <linearGradient id="glass-gradient" x1="0%" y1="0%" x2="0%" y2="100%">
      <stop offset="0%" stop-color="#1c3b57" />
      <stop offset="100%" stop-color="#091f33" />
    </linearGradient>

    <path id="p80-solid" d="
      M 500 100
      C 530 150, 540 300, 540 380
      L 740 420
      L 740 350
      C 740 320, 780 320, 780 350
      L 780 550
      C 780 580, 740 580, 740 550
      L 740 480
      L 540 520
      L 520 680
      L 650 710
      C 660 710, 660 740, 650 740
      L 510 760
      L 510 800
      C 505 810, 495 810, 490 800
      L 490 760
      L 350 740
      C 340 740, 340 710, 350 710
      L 480 680
      L 460 520
      L 260 480
      L 260 550
      C 260 580, 220 580, 220 550
      L 220 350
      C 220 320, 260 320, 260 350
      L 260 420
      L 460 380
      C 460 300, 470 150, 500 100
      Z"
    />
  </defs>

  <use href="#p80-solid" fill="url(#body-gradient)" stroke="#8abde4" stroke-width="18" stroke-linejoin="round" stroke-linecap="round" paint-order="stroke fill" />

  <path d="M 500 100 C 470 150, 460 300, 460 380 L 460 520 L 480 680 L 490 760 L 500 760 L 500 100 Z"
        fill="#ffffff" opacity="0.12" />

  <path d="M 540 C 555 385, 555 410, 538 415 Z" fill="#142436" opacity="0.88" />
  <path d="M 460 C 445 385, 445 410, 462 415 Z" fill="#142436" opacity="0.88" />

  <path d="M 500 100 C 510 120, 510 160, 500 180 C 490 160, 490 120, 500 100 Z" fill="#182c40" opacity="0.85" />

  <path d="M 500 180 C 520 200, 520 320, 500 350 C 480 320, 480 200, 500 180 Z"
        fill="url(#glass-gradient)" />

  <path d="M 495 185 C 488 220, 488 300, 495 330 C 493 300, 493 220, 495 185 Z" fill="#ffffff" opacity="0.25" />
</svg>
