<svg role="img" viewBox="0 0 24 24" xmlns="http://www.w3.org/2000/svg"><title>CircleCI</title><path d="M8.84 12c0-1.742 1.418-3.156 3.16-3.156 1.742 0 3.16 1.414 3.16 3.156s-1.418 3.156-3.16 3.156c-1.742 0-3.16-1.414-3.16-3.156zM12 0C6.219 0 1.391 4.094.25 9.547c-.016.062-.016.125-.016.187 0 .438.359.797.797.797h5.031c.328 0 .61-.187.735-.484C7.703 7.797 9.69 6.328 12 6.328c3.137 0 5.687 2.547 5.687 5.672 0 3.125-2.55 5.672-5.687 5.672-2.312 0-4.297-1.469-5.203-3.719a.798.798 0 0 0-.735-.484H1.031a.797.797 0 0 0-.797.797c0 .062 0 .125.016.187C1.391 19.906 6.219 24 12 24c6.625 0 12-5.375 12-12S18.625 0 12 0z"/></svg>
