<svg role="img" viewBox="0 0 24 24" xmlns="http://www.w3.org/2000/svg"><title>Notion</title><path d="M4.459 4.208c.746.606 1.026.56 2.428.466l13.215-.793c.28 0 .047-.28-.046-.326L18.56 2.35c-.42-.326-.98-.7-2.055-.607L3.01 2.96c-.466.046-.56.28-.374.466zm.793 3.08v13.904c0 .747.373 1.027 1.214.98l14.523-.84c.84-.046.933-.56.933-1.167V6.354c0-.606-.233-.933-.746-.886l-15.177.887c-.56.046-.747.326-.747.933zm14.337.745c.093.42 0 .84-.42.888l-.7.14v10.264c-.608.327-1.168.514-1.635.514-.747 0-.933-.234-1.495-.933l-4.577-7.186v6.952l1.448.327s0 .84-1.168.84l-3.222.186c-.093-.186 0-.653.327-.746l.84-.233V9.854L7.822 9.76c-.094-.42.14-1.026.793-1.073l3.456-.233 4.764 7.279v-6.44l-1.215-.14c-.093-.514.28-.886.747-.933zM2.24 1.426l14.057-1.027c1.726-.14 2.192-.047 3.268.7l4.505 3.127c.747.56.98.886.98 1.634v15.57c0 .981-.373 1.587-1.68 1.68l-15.457.933c-.98.047-1.448-.093-1.962-.747l-3.127-4.086c-.56-.747-.793-1.307-.793-1.96V3.153c0-.84.374-1.54 1.214-1.727z"/></svg>
